# Blender v3.1.2 OBJ File: ''
# www.blender.org
mtllib Smoothing_Chisel.mtl
o Cube
v 0.003370 1.213395 -0.051847
v 0.047679 -1.213395 -0.092408
v 0.003370 1.213395 0.051847
v 0.047679 -1.213395 0.092408
v -0.003370 1.213395 -0.051847
v -0.047679 -1.213395 -0.092408
v -0.003370 1.213395 0.051847
v -0.047679 -1.213395 0.092408
v 0.047679 0.948343 -0.092408
v -0.047679 0.948343 0.092408
v 0.047679 0.948343 0.092408
v -0.047679 0.948343 -0.092408
vt 0.625000 0.500000
vt 0.875000 0.500000
vt 0.875000 0.750000
vt 0.625000 0.750000
vt 0.597695 0.750000
vt 0.625000 1.000000
vt 0.597695 1.000000
vt 0.597695 0.000000
vt 0.625000 0.000000
vt 0.625000 0.250000
vt 0.597695 0.250000
vt 0.125000 0.500000
vt 0.375000 0.500000
vt 0.375000 0.750000
vt 0.125000 0.750000
vt 0.597695 0.500000
vt 0.375000 0.250000
vt 0.375000 0.000000
vt 0.375000 1.000000
vn 0.0000 1.0000 0.0000
vn 0.0000 0.1513 0.9885
vn -0.9863 0.1649 0.0000
vn 0.0000 -1.0000 0.0000
vn 0.9863 0.1649 0.0000
vn 0.0000 0.1513 -0.9885
vn 0.0000 0.0000 -1.0000
vn 1.0000 0.0000 0.0000
vn -1.0000 0.0000 0.0000
vn 0.0000 0.0000 1.0000
usemtl Material
s off
f 1/1/1 5/2/1 7/3/1 3/4/1
f 11/5/2 3/4/2 7/6/2 10/7/2
f 10/8/3 7/9/3 5/10/3 12/11/3
f 6/12/4 2/13/4 4/14/4 8/15/4
f 9/16/5 1/1/5 3/4/5 11/5/5
f 12/11/6 5/10/6 1/1/6 9/16/6
f 6/17/7 12/11/7 9/16/7 2/13/7
f 2/13/8 9/16/8 11/5/8 4/14/8
f 8/18/9 10/8/9 12/11/9 6/17/9
f 4/14/10 11/5/10 10/7/10 8/19/10
